HIERARCHY
ROOT Hips
{
    OFFSET 0.000000 0.000000 0.000000
    CHANNELS 6 Xposition Yposition Zposition Zrotation Yrotation Xrotation
    JOINT LeftUpLeg
    {
        OFFSET 13.325864 -7.863496 7.041502
        CHANNELS 3 Zrotation Yrotation Xrotation
        JOINT LeftLeg
        {
            OFFSET 11.673183 -32.071877 0.000000
            CHANNELS 3 Zrotation Yrotation Xrotation
            JOINT LeftFoot
            {
                OFFSET 13.920840 -38.247189 0.000000
                CHANNELS 3 Zrotation Yrotation Xrotation
                JOINT LeftToeBase
                {
                    OFFSET 1.469294 -4.036875 11.263119
                    CHANNELS 3 Zrotation Yrotation Xrotation
                    End Site
                    {
                        OFFSET 0.000000 0.000000 0.000000
                    }
                }
            }
        }
    }
    JOINT RightUpLeg
    {
        OFFSET -12.713616 -7.863496 7.041502
        CHANNELS 3 Zrotation Yrotation Xrotation
        JOINT RightLeg
        {
            OFFSET -12.267709 -33.705254 0.000000
            CHANNELS 3 Zrotation Yrotation Xrotation
            JOINT RightFoot
            {
                OFFSET -14.244885 -39.137478 0.000000
                CHANNELS 3 Zrotation Yrotation Xrotation
                JOINT RightToeBase
                {
                    OFFSET -1.272135 -3.495182 11.934915
                    CHANNELS 3 Zrotation Yrotation Xrotation
                    End Site
                    {
                        OFFSET 0.000000 0.000000 0.000000
                    }
                }
            }
        }
    }
    JOINT Spine
    {
        OFFSET 0.089972 12.028386 0.451947
        CHANNELS 3 Zrotation Yrotation Xrotation
        JOINT Spine1
        {
            OFFSET 0.078626 11.837605 1.035070
            CHANNELS 3 Zrotation Yrotation Xrotation
            JOINT Neck1
            {
                OFFSET 0.302032 7.840919 1.834091
                CHANNELS 3 Zrotation Yrotation Xrotation
                JOINT Head
                {
                    OFFSET 0.040132 8.240373 -1.222916
                    CHANNELS 3 Zrotation Yrotation Xrotation
                    End Site
                    {
                        OFFSET 0.000000 0.000000 0.000000
                    }
                }
            }
            JOINT LeftShoulder
            {
                OFFSET 0.000000 0.000000 0.000000
                CHANNELS 3 Zrotation Yrotation Xrotation
                JOINT LeftArm
                {
                    OFFSET 16.210604 5.206903 0.628335
                    CHANNELS 3 Zrotation Yrotation Xrotation
                    JOINT LeftForeArm
                    {
                        OFFSET 31.198349 -0.000000 0.000000
                        CHANNELS 3 Zrotation Yrotation Xrotation
                        JOINT LeftHand
                        {
                            OFFSET 17.557415 -0.000000 0.000000
                            CHANNELS 3 Zrotation Yrotation Xrotation
                            End Site
                            {
                                OFFSET 0.000000 0.000000 0.000000
                            }
                        }
                    }
                }
            }
            JOINT RightShoulder
            {
                OFFSET 0.000000 0.000000 0.000000
                CHANNELS 3 Zrotation Yrotation Xrotation
                JOINT RightArm
                {
                    OFFSET -16.634611 3.842256 1.816763
                    CHANNELS 3 Zrotation Yrotation Xrotation
                    JOINT RightForeArm
                    {
                        OFFSET -29.655453 -0.000000 -0.000000
                        CHANNELS 3 Zrotation Yrotation Xrotation
                        JOINT RightHand
                        {
                            OFFSET -17.529644 -0.000000 0.000000
                            CHANNELS 3 Zrotation Yrotation Xrotation
                            End Site
                            {
                                OFFSET 0.000000 0.000000 0.000000
                            }
                        }
                    }
                }
            }
        }
    }
}
MOTION
Frames: 9
Frame Time: 0.016667
29.007137 51.463943 108.677277 -174.828003 0.935200 -107.844994 -10.428206 -18.739500 -6.951104 0.000000 0.000000 0.000000 2.439501 -8.764101 -28.111200 0.803100 -5.719500 -15.972698 -8.872502 21.882912 -158.929306 -10.244604 -17.545101 60.302921 -1.402000 2.018700 23.178200 -0.066900 1.668700 -4.590900 -2.663819 5.921744 10.133831 10.331501 2.246300 -5.347601 -0.790911 1.947987 -47.916748 0.284800 2.780701 8.761907 0.000000 0.000000 0.000000 -62.022804 -74.084801 39.764301 13.024700 -21.323307 -2.462199 0.000000 0.000000 -17.818501 0.000000 0.000000 0.000000 96.950485 73.511093 74.335991 -13.230405 21.623808 -2.537601 0.000000 0.000000 23.995600 
29.002056 51.693111 108.925636 -174.944000 0.814600 -107.649002 -10.210699 -18.996311 -7.420800 0.000000 0.000000 0.000000 2.451500 -8.512201 -28.191013 0.808000 -5.736700 -16.022207 -9.022804 21.718706 -158.593002 -9.961006 -17.387796 59.357895 -1.455300 1.838800 23.521795 -0.073600 1.750201 -4.815900 -2.521363 5.807001 10.355904 10.411704 2.217801 -5.255402 -0.724106 1.916342 -47.606358 0.330400 2.709800 8.840105 0.000000 0.000000 0.000000 -60.467823 -74.583923 38.137226 13.040300 -21.346197 -2.467900 0.000000 0.000000 -17.891308 0.000000 0.000000 0.000000 97.479927 74.258095 74.978508 -13.230196 21.623596 -2.537498 0.000000 0.000000 24.063200 
28.992460 51.918320 109.176811 -175.041000 0.683000 -107.442009 -9.958599 -19.227816 -7.882603 0.000000 0.000000 0.000000 2.460100 -8.524804 -28.242208 0.716800 -5.410500 -15.083209 -9.137200 21.577200 -158.261200 -9.676003 -17.223604 58.399708 -1.511201 1.667701 23.884108 -0.079500 1.819301 -5.006600 -2.372341 5.688057 10.562243 10.519900 2.187401 -5.124102 -0.669046 1.912188 -47.280510 0.380400 2.642401 8.948904 0.000000 0.000000 0.000000 -58.616077 -75.054161 36.270065 13.097500 -21.429909 -2.488801 0.000000 0.000000 -17.983601 0.000000 0.000000 0.000000 98.088531 75.043480 75.721649 -13.224805 21.615700 -2.535501 0.000000 0.000000 24.109301 
28.973270 52.141277 109.422913 -175.110992 0.512501 -107.238037 -9.655802 -19.439499 -8.336005 0.000000 0.000000 0.000000 2.468001 -8.678002 -28.283899 0.583200 -4.889901 -13.594804 -9.180099 21.456612 -157.917496 -9.393304 -17.054300 57.440716 -1.568601 1.503000 24.254105 -0.084500 1.875302 -5.161302 -2.169033 5.565222 10.765392 10.648700 2.157800 -4.963995 -0.640924 1.921254 -46.922417 0.423600 2.576101 9.082804 0.000000 0.000000 0.000000 -56.551926 -75.482361 34.212311 13.187598 -21.561493 -2.521798 0.000000 0.000000 -18.141602 0.000000 0.000000 0.000000 98.733421 75.813942 76.492638 -13.232999 21.627701 -2.538499 0.000000 0.000000 24.110800 
28.948433 52.361404 109.672386 -175.173996 0.360000 -107.050987 -9.391605 -19.645397 -8.793900 0.000000 0.000000 0.000000 2.484002 -8.585903 -28.381802 0.530700 -4.668303 -12.965009 -9.213506 21.355906 -157.547104 -9.108000 -16.876699 56.462898 -1.628301 1.349300 24.640190 -0.090200 1.937199 -5.332200 -1.994252 5.436875 10.992605 10.843004 2.129400 -4.800500 -0.662969 1.940096 -46.516289 0.466300 2.513602 9.213004 0.000000 0.000000 0.000000 -54.328152 -75.848991 31.973520 13.304304 -21.731407 -2.564801 0.000000 0.000000 -18.437799 0.000000 0.000000 0.000000 99.384254 76.560165 77.340561 -13.269710 21.681204 -2.552102 0.000000 0.000000 24.015800 
28.917955 52.575893 109.929779 -175.240997 0.262300 -106.874008 -9.209899 -19.851492 -9.263102 0.000000 0.000000 0.000000 2.509001 -8.179604 -28.547701 0.573800 -4.850802 -13.483503 -9.292101 21.261803 -157.159500 -8.815700 -16.687700 55.450600 -1.693100 1.190500 25.054899 -0.096100 1.999499 -5.504098 -1.895917 5.301950 11.236009 11.113200 2.100700 -4.642803 -0.739110 1.967799 -46.078156 0.509200 2.456501 9.342696 0.000000 0.000000 0.000000 -51.994106 -76.158279 29.573982 13.434006 -21.919813 -2.613101 0.000000 0.000000 -18.804600 0.000000 0.000000 0.000000 100.034859 77.288811 78.260094 -13.330998 21.770208 -2.574701 0.000000 0.000000 23.908001 
28.879572 52.779095 110.192795 -175.302994 0.195100 -106.695007 -9.060008 -20.042208 -9.728805 0.000000 0.000000 0.000000 2.535601 -7.797902 -28.726604 0.609200 -4.995902 -13.896808 -9.401506 21.170000 -156.770706 -8.518900 -16.487906 54.410801 -1.763001 1.022701 25.496008 -0.101900 2.058400 -5.667102 -1.835584 5.161270 11.474096 11.432000 2.070400 -4.477200 -0.851103 1.997759 -45.638687 0.547500 2.403201 9.487904 0.000000 0.000000 0.000000 -49.571571 -76.450592 26.983557 13.548203 -22.085218 -2.655902 0.000000 0.000000 -19.114901 0.000000 0.000000 0.000000 100.634811 78.034256 79.257156 -13.402807 21.874607 -2.601401 0.000000 0.000000 23.771999 
28.833290 52.972694 110.454697 -175.352997 0.145900 -106.499001 -8.916005 -20.214504 -10.202806 0.000000 0.000000 0.000000 2.563600 -7.508402 -28.911201 0.617800 -5.030300 -13.994900 -9.533204 21.083708 -156.395294 -8.220500 -16.279100 53.353115 -1.836500 0.849300 25.952097 -0.107600 2.115400 -5.824600 -1.793092 5.026407 11.681840 11.745205 2.038801 -4.301003 -0.976342 2.020086 -45.201794 0.569000 2.351901 9.634606 0.000000 0.000000 0.000000 -47.066090 -76.765282 24.220194 13.624600 -22.195499 -2.684601 0.000000 0.000000 -19.320200 0.000000 0.000000 0.000000 101.206886 78.775154 80.245407 -13.481500 21.988707 -2.630901 0.000000 0.000000 23.580805 
28.781923 53.162346 110.715477 -175.384995 0.071400 -106.272003 -8.724498 -20.378912 -10.710706 0.000000 0.000000 0.000000 2.593399 -7.235099 -29.108389 0.628000 -5.070702 -14.110307 -9.657305 20.994011 -156.042099 -7.922300 -16.061800 52.282284 -1.911500 0.663300 26.406610 -0.113900 2.175900 -5.992102 -1.702392 4.927910 11.828243 11.922001 2.012600 -4.141002 -1.038466 2.003127 -44.725368 0.557300 2.289101 9.739304 0.000000 0.000000 0.000000 -44.524044 -77.120483 21.516211 13.666503 -22.255997 -2.700501 0.000000 0.000000 -19.493214 0.000000 0.000000 0.000000 101.734039 79.459488 80.986160 -13.565112 22.109509 -2.662201 0.000000 0.000000 23.358110 
